<?xml version="1.0" encoding="UTF-8" standalone="no"?><!DOCTYPE svg PUBLIC "-//W3C//DTD SVG 1.1//EN" "http://www.w3.org/Graphics/SVG/1.1/DTD/svg11.dtd"><!-- Generated by graphviz version 2.40.1 (20161225.0304)
 --><!-- Title: grad_f Pages: 1 --><svg xmlns="http://www.w3.org/2000/svg" xmlns:xlink="http://www.w3.org/1999/xlink" width="222pt" height="188pt" viewBox="0.00 0.00 222.00 188.00">
<g id="graph0" class="graph" transform="scale(1 1) rotate(0) translate(4 184)">
<title>grad_f</title>
<polygon fill="#ffffff" stroke="transparent" points="-4,4 -4,-184 218,-184 218,4 -4,4"/>
<!-- cos -->
<g id="node1" class="node">
<title>cos</title>
<ellipse fill="none" stroke="#000000" cx="107" cy="-90" rx="35.3315" ry="18"/>
<text text-anchor="middle" x="107" y="-85.8" font-family="Times,serif" font-size="14.00" fill="#000000">cos(g)</text>
</g>
<!-- mul3 -->
<g id="node7" class="node">
<title>mul3</title>
<ellipse fill="none" stroke="#000000" cx="69" cy="-18" rx="27" ry="18"/>
<text text-anchor="middle" x="69" y="-13.8" font-family="Times,serif" font-size="14.00" fill="#000000">*</text>
</g>
<!-- cos&#45;&gt;mul3 -->
<g id="edge5" class="edge">
<title>cos-&gt;mul3</title>
<path fill="none" stroke="#000000" d="M97.8013,-72.5708C93.3203,-64.0807 87.8379,-53.6929 82.8634,-44.2674"/>
<polygon fill="#000000" stroke="#000000" points="85.877,-42.4789 78.114,-35.2687 79.6863,-45.7462 85.877,-42.4789"/>
</g>
<!-- mul4 -->
<g id="node8" class="node">
<title>mul4</title>
<ellipse fill="none" stroke="#000000" cx="145" cy="-18" rx="27" ry="18"/>
<text text-anchor="middle" x="145" y="-13.8" font-family="Times,serif" font-size="14.00" fill="#000000">*</text>
</g>
<!-- cos&#45;&gt;mul4 -->
<g id="edge7" class="edge">
<title>cos-&gt;mul4</title>
<path fill="none" stroke="#000000" d="M116.1987,-72.5708C120.6797,-64.0807 126.1621,-53.6929 131.1366,-44.2674"/>
<polygon fill="#000000" stroke="#000000" points="134.3137,-45.7462 135.886,-35.2687 128.123,-42.4789 134.3137,-45.7462"/>
</g>
<!-- x -->
<g id="node2" class="node">
<title>x</title>
<ellipse fill="none" stroke="#000000" cx="27" cy="-162" rx="27" ry="18"/>
<text text-anchor="middle" x="27" y="-157.8" font-family="Times,serif" font-size="14.00" fill="#000000">x</text>
</g>
<!-- mul1 -->
<g id="node5" class="node">
<title>mul1</title>
<ellipse fill="none" stroke="#000000" cx="27" cy="-90" rx="27" ry="18"/>
<text text-anchor="middle" x="27" y="-85.8" font-family="Times,serif" font-size="14.00" fill="#000000">*</text>
</g>
<!-- x&#45;&gt;mul1 -->
<g id="edge2" class="edge">
<title>x-&gt;mul1</title>
<path fill="none" stroke="#000000" d="M27,-143.8314C27,-136.131 27,-126.9743 27,-118.4166"/>
<polygon fill="#000000" stroke="#000000" points="30.5001,-118.4132 27,-108.4133 23.5001,-118.4133 30.5001,-118.4132"/>
</g>
<!-- y -->
<g id="node3" class="node">
<title>y</title>
<ellipse fill="none" stroke="#000000" cx="187" cy="-162" rx="27" ry="18"/>
<text text-anchor="middle" x="187" y="-157.8" font-family="Times,serif" font-size="14.00" fill="#000000">y</text>
</g>
<!-- mul2 -->
<g id="node6" class="node">
<title>mul2</title>
<ellipse fill="none" stroke="#000000" cx="187" cy="-90" rx="27" ry="18"/>
<text text-anchor="middle" x="187" y="-85.8" font-family="Times,serif" font-size="14.00" fill="#000000">*</text>
</g>
<!-- y&#45;&gt;mul2 -->
<g id="edge4" class="edge">
<title>y-&gt;mul2</title>
<path fill="none" stroke="#000000" d="M187,-143.8314C187,-136.131 187,-126.9743 187,-118.4166"/>
<polygon fill="#000000" stroke="#000000" points="190.5001,-118.4132 187,-108.4133 183.5001,-118.4133 190.5001,-118.4132"/>
</g>
<!-- two -->
<g id="node4" class="node">
<title>two</title>
<ellipse fill="none" stroke="#000000" cx="107" cy="-162" rx="27" ry="18"/>
<text text-anchor="middle" x="107" y="-157.8" font-family="Times,serif" font-size="14.00" fill="#000000">2</text>
</g>
<!-- two&#45;&gt;mul1 -->
<g id="edge1" class="edge">
<title>two-&gt;mul1</title>
<path fill="none" stroke="#000000" d="M90.8108,-147.4297C79.3167,-137.0851 63.6985,-123.0286 50.7907,-111.4116"/>
<polygon fill="#000000" stroke="#000000" points="52.9395,-108.6367 43.1651,-104.5486 48.2567,-113.8398 52.9395,-108.6367"/>
</g>
<!-- two&#45;&gt;mul2 -->
<g id="edge3" class="edge">
<title>two-&gt;mul2</title>
<path fill="none" stroke="#000000" d="M123.1892,-147.4297C134.6833,-137.0851 150.3015,-123.0286 163.2093,-111.4116"/>
<polygon fill="#000000" stroke="#000000" points="165.7433,-113.8398 170.8349,-104.5486 161.0605,-108.6367 165.7433,-113.8398"/>
</g>
<!-- mul1&#45;&gt;mul3 -->
<g id="edge6" class="edge">
<title>mul1-&gt;mul3</title>
<path fill="none" stroke="#000000" d="M36.9534,-72.937C42.0271,-64.2393 48.3034,-53.4799 53.953,-43.7948"/>
<polygon fill="#000000" stroke="#000000" points="57.1025,-45.3419 59.118,-34.9405 51.056,-41.8148 57.1025,-45.3419"/>
</g>
<!-- mul2&#45;&gt;mul4 -->
<g id="edge8" class="edge">
<title>mul2-&gt;mul4</title>
<path fill="none" stroke="#000000" d="M177.0466,-72.937C171.9729,-64.2393 165.6966,-53.4799 160.047,-43.7948"/>
<polygon fill="#000000" stroke="#000000" points="162.944,-41.8148 154.882,-34.9405 156.8975,-45.3419 162.944,-41.8148"/>
</g>
</g>
</svg>