<?xml version="1.0" encoding="UTF-8" standalone="no"?><!DOCTYPE svg PUBLIC "-//W3C//DTD SVG 1.1//EN" "http://www.w3.org/Graphics/SVG/1.1/DTD/svg11.dtd"><!-- Generated by graphviz version 2.40.1 (20161225.0304)
 --><!-- Title: f Pages: 1 --><svg xmlns="http://www.w3.org/2000/svg" xmlns:xlink="http://www.w3.org/1999/xlink" width="206pt" height="260pt" viewBox="0.00 0.00 206.00 260.00">
<g id="graph0" class="graph" transform="scale(1 1) rotate(0) translate(4 256)">
<title>f</title>
<polygon fill="#ffffff" stroke="transparent" points="-4,4 -4,-256 202,-256 202,4 -4,4"/>
<!-- x -->
<g id="node1" class="node">
<title>x</title>
<ellipse fill="none" stroke="#000000" cx="27" cy="-234" rx="27" ry="18"/>
<text text-anchor="middle" x="27" y="-229.8" font-family="Times,serif" font-size="14.00" fill="#000000">x</text>
</g>
<!-- pow1 -->
<g id="node5" class="node">
<title>pow1</title>
<ellipse fill="none" stroke="#000000" cx="60" cy="-162" rx="27.8306" ry="18"/>
<text text-anchor="middle" x="60" y="-157.8" font-family="Times,serif" font-size="14.00" fill="#000000">pow</text>
</g>
<!-- x&#45;&gt;pow1 -->
<g id="edge1" class="edge">
<title>x-&gt;pow1</title>
<path fill="none" stroke="#000000" d="M34.9884,-216.5708C38.8392,-208.1691 43.5417,-197.9091 47.8256,-188.5623"/>
<polygon fill="#000000" stroke="#000000" points="51.1003,-189.8177 52.0852,-179.2687 44.7369,-186.901 51.1003,-189.8177"/>
</g>
<!-- y -->
<g id="node2" class="node">
<title>y</title>
<ellipse fill="none" stroke="#000000" cx="171" cy="-234" rx="27" ry="18"/>
<text text-anchor="middle" x="171" y="-229.8" font-family="Times,serif" font-size="14.00" fill="#000000">y</text>
</g>
<!-- pow2 -->
<g id="node6" class="node">
<title>pow2</title>
<ellipse fill="none" stroke="#000000" cx="138" cy="-162" rx="32.4865" ry="18"/>
<text text-anchor="middle" x="138" y="-157.8" font-family="Times,serif" font-size="14.00" fill="#000000">pow2</text>
</g>
<!-- y&#45;&gt;pow2 -->
<g id="edge3" class="edge">
<title>y-&gt;pow2</title>
<path fill="none" stroke="#000000" d="M163.0116,-216.5708C159.1892,-208.2309 154.5274,-198.0598 150.2689,-188.7686"/>
<polygon fill="#000000" stroke="#000000" points="153.3775,-187.1506 146.0292,-179.5182 147.0141,-190.0672 153.3775,-187.1506"/>
</g>
<!-- two -->
<g id="node3" class="node">
<title>two</title>
<ellipse fill="none" stroke="#000000" cx="99" cy="-234" rx="27" ry="18"/>
<text text-anchor="middle" x="99" y="-229.8" font-family="Times,serif" font-size="14.00" fill="#000000">2</text>
</g>
<!-- two&#45;&gt;pow1 -->
<g id="edge2" class="edge">
<title>two-&gt;pow1</title>
<path fill="none" stroke="#000000" d="M89.7575,-216.937C85.1624,-208.4537 79.505,-198.0092 74.3612,-188.513"/>
<polygon fill="#000000" stroke="#000000" points="77.2874,-186.5666 69.447,-179.4407 71.1324,-189.9006 77.2874,-186.5666"/>
</g>
<!-- two&#45;&gt;pow2 -->
<g id="edge4" class="edge">
<title>two-&gt;pow2</title>
<path fill="none" stroke="#000000" d="M108.2425,-216.937C112.8376,-208.4537 118.495,-198.0092 123.6388,-188.513"/>
<polygon fill="#000000" stroke="#000000" points="126.8676,-189.9006 128.553,-179.4407 120.7126,-186.5666 126.8676,-189.9006"/>
</g>
<!-- sin -->
<g id="node4" class="node">
<title>sin</title>
<ellipse fill="none" stroke="#000000" cx="99" cy="-18" rx="27" ry="18"/>
<text text-anchor="middle" x="99" y="-13.8" font-family="Times,serif" font-size="14.00" fill="#000000">sin</text>
</g>
<!-- sum -->
<g id="node7" class="node">
<title>sum</title>
<ellipse fill="none" stroke="#000000" cx="99" cy="-90" rx="27" ry="18"/>
<text text-anchor="middle" x="99" y="-85.8" font-family="Times,serif" font-size="14.00" fill="#000000">+</text>
</g>
<!-- pow1&#45;&gt;sum -->
<g id="edge5" class="edge">
<title>pow1-&gt;sum</title>
<path fill="none" stroke="#000000" d="M69.2425,-144.937C73.9537,-136.2393 79.7817,-125.4799 85.0278,-115.7948"/>
<polygon fill="#000000" stroke="#000000" points="88.1385,-117.4005 89.8239,-106.9405 81.9835,-114.0664 88.1385,-117.4005"/>
</g>
<!-- pow2&#45;&gt;sum -->
<g id="edge6" class="edge">
<title>pow2-&gt;sum</title>
<path fill="none" stroke="#000000" d="M128.5592,-144.5708C123.9604,-136.0807 118.3336,-125.6929 113.2282,-116.2674"/>
<polygon fill="#000000" stroke="#000000" points="116.1943,-114.3946 108.3539,-107.2687 110.0392,-117.7286 116.1943,-114.3946"/>
</g>
<!-- sum&#45;&gt;sin -->
<g id="edge7" class="edge">
<title>sum-&gt;sin</title>
<path fill="none" stroke="#000000" d="M99,-71.8314C99,-64.131 99,-54.9743 99,-46.4166"/>
<polygon fill="#000000" stroke="#000000" points="102.5001,-46.4132 99,-36.4133 95.5001,-46.4133 102.5001,-46.4132"/>
</g>
</g>
</svg>