<svg xmlns="http://www.w3.org/2000/svg" xmlns:xlink="http://www.w3.org/1999/xlink" xmlns:lucid="lucid" width="2000" height="920"><g transform="translate(-5 -122)" lucid:page-tab-id="0_0"><path d="M0 0h3676.8v1323.2H0z" fill="#fff"/><path d="M320 180h600v750H320z" stroke="#000" stroke-width="2" fill="#fff"/><use xlink:href="#a" transform="matrix(1,0,0,1,325,185) translate(215.14814814814815 21.333333333333336)"/><use xlink:href="#b" transform="matrix(1,0,0,1,325,185) translate(306.77777777777777 21.333333333333336)"/><path d="M420 315h160v500H420z" stroke="#000" stroke-width="2" fill="#fff"/><use xlink:href="#c" transform="matrix(1,0,0,1,425,319.99999999999994) translate(41.05 252.228125)"/><use xlink:href="#d" transform="matrix(1,0,0,1,425,319.99999999999994) translate(98.95 252.228125)"/><path d="M160 365h124v-20l36 40-36 40v-20H160zM160 485h124v-20l36 40-36 40v-20H160zM160 605h124v-20l36 40-36 40v-20H160zM160 725h124v-20l36 40-36 40v-20H160z" stroke="#000" stroke-width="2" fill="#fff"/><path d="M180 245h120v60H180z" stroke="#000" stroke-opacity="0" stroke-width="2" fill="#fff" fill-opacity="0"/><use xlink:href="#e" transform="matrix(1,0,0,1,185,250) translate(23.075 14.4)"/><use xlink:href="#f" transform="matrix(1,0,0,1,185,250) translate(69.025 14.4)"/><use xlink:href="#g" transform="matrix(1,0,0,1,185,250) translate(19.574999999999996 36)"/><use xlink:href="#h" transform="matrix(1,0,0,1,185,250) translate(23.5 57.6)"/><path d="M660 315h160v500H660z" stroke="#000" stroke-width="2" fill="#fff"/><use xlink:href="#c" transform="matrix(1,0,0,1,665,319.99999999999994) translate(41.05 252.228125)"/><use xlink:href="#i" transform="matrix(1,0,0,1,665,319.99999999999994) translate(98.95 252.228125)"/><path d="M580 535h44v-20l36 40-36 40v-20h-44zM320 535h64v-20l36 40-36 40v-20h-64zM160 180v745.33H40C60.04 800.86 60.04 723.35 60.04 676.4 60.04 601.85 40 502.72 40 428.2 40 382 40 303.73 60.04 180z" stroke="#000" stroke-width="2" fill="#fff"/><use xlink:href="#j" transform="matrix(6.123233995736766e-17,1,-1,6.123233995736766e-17,155,185) translate(264.2962962962963 56.72916666666667)"/><path d="M1160 180h600v750h-600z" stroke="#000" stroke-width="2" fill="#fff"/><use xlink:href="#a" transform="matrix(1,0,0,1,1165,185) translate(215.14814814814815 21.333333333333336)"/><use xlink:href="#b" transform="matrix(1,0,0,1,1165,185) translate(306.77777777777777 21.333333333333336)"/><path d="M1260 315h160v500h-160z" stroke="#000" stroke-width="2" fill="#fff"/><use xlink:href="#c" transform="matrix(1,0,0,1,1265,319.99999999999994) translate(41.05 252.228125)"/><use xlink:href="#k" transform="matrix(1,0,0,1,1265,319.99999999999994) translate(98.95 252.228125)"/><path d="M1500 315h160v500h-160z" stroke="#000" stroke-width="2" fill="#fff"/><use xlink:href="#c" transform="matrix(1,0,0,1,1505,319.99999999999994) translate(41.05 252.228125)"/><use xlink:href="#l" transform="matrix(1,0,0,1,1505,319.99999999999994) translate(98.95 252.228125)"/><path d="M1420 535h44v-20l36 40-36 40v-20h-44zM1160 535h64v-20l36 40-36 40v-20h-64zM820 535h64v-20l36 40-36 40v-20h-64zM1660 535h64v-20l36 40-36 40v-20h-64z" stroke="#000" stroke-width="2" fill="#fff"/><path d="M920 505h240v100H920z" fill="#fff"/><path d="M920 505h240m0 100H920" stroke="#000" stroke-width="2" fill="#fff"/><use xlink:href="#m" transform="matrix(1,0,0,1,940,505) translate(82.025 53.6)"/><path d="M1760 505h200v100h-200z" fill="#fff"/><path d="M1760 505h200m0 100h-200" stroke="#000" stroke-width="2" fill="#fff"/><g><use xlink:href="#m" transform="matrix(1,0,0,1,1780,505) translate(62.025 53.6)"/></g><path d="M950 420h180v60H950z" stroke="#000" stroke-opacity="0" stroke-width="2" fill="#fff" fill-opacity="0"/><g><use xlink:href="#n" transform="matrix(1,0,0,1,955,425) translate(8.125 17.525)"/><use xlink:href="#o" transform="matrix(1,0,0,1,955,425) translate(78.92500000000001 17.525)"/><use xlink:href="#h" transform="matrix(1,0,0,1,955,425) translate(53.5 39.125)"/></g><path d="M500 960h240v60H500z" stroke="#000" stroke-opacity="0" stroke-width="2" fill="#fff" fill-opacity="0"/><g><use xlink:href="#p" transform="matrix(1,0,0,1,505,965) translate(80.05 30.025)"/><use xlink:href="#d" transform="matrix(1,0,0,1,505,965) translate(139.95 30.025)"/></g><path d="M1340 960h240v60h-240z" stroke="#000" stroke-opacity="0" stroke-width="2" fill="#fff" fill-opacity="0"/><g><use xlink:href="#p" transform="matrix(1,0,0,1,1345,965) translate(80.05 30.025)"/><use xlink:href="#i" transform="matrix(1,0,0,1,1345,965) translate(139.95 30.025)"/></g><defs><path d="M212-179c-10-28-35-45-73-45-59 0-87 40-87 99 0 60 29 101 89 101 43 0 62-24 78-52l27 14C228-24 195 4 139 4 59 4 22-46 18-125c-6-104 99-153 187-111 19 9 31 26 39 46" id="q"/><path d="M24 0v-261h32V0H24" id="r"/><path d="M84 4C-5 8 30-112 23-190h32v120c0 31 7 50 39 49 72-2 45-101 50-169h31l1 190h-30c-1-10 1-25-2-33-11 22-28 36-60 37" id="s"/><path d="M135-143c-3-34-86-38-87 0 15 53 115 12 119 90S17 21 10-45l28-5c4 36 97 45 98 0-10-56-113-15-118-90-4-57 82-63 122-42 12 7 21 19 24 35" id="t"/><path d="M59-47c-2 24 18 29 38 22v24C64 9 27 4 27-40v-127H5v-23h24l9-43h21v43h35v23H59v120" id="u"/><path d="M100-194c63 0 86 42 84 106H49c0 40 14 67 53 68 26 1 43-12 49-29l28 8c-11 28-37 45-77 45C44 4 14-33 15-96c1-61 26-98 85-98zm52 81c6-60-76-77-97-28-3 7-6 17-6 28h103" id="v"/><path d="M114-163C36-179 61-72 57 0H25l-1-190h30c1 12-1 29 2 39 6-27 23-49 58-41v29" id="w"/><g id="a"><use transform="matrix(0.07407407407407408,0,0,0.07407407407407408,0,0)" xlink:href="#q"/><use transform="matrix(0.07407407407407408,0,0,0.07407407407407408,19.185185185185187,0)" xlink:href="#r"/><use transform="matrix(0.07407407407407408,0,0,0.07407407407407408,25.037037037037035,0)" xlink:href="#s"/><use transform="matrix(0.07407407407407408,0,0,0.07407407407407408,39.851851851851855,0)" xlink:href="#t"/><use transform="matrix(0.07407407407407408,0,0,0.07407407407407408,53.18518518518519,0)" xlink:href="#u"/><use transform="matrix(0.07407407407407408,0,0,0.07407407407407408,60.592592592592595,0)" xlink:href="#v"/><use transform="matrix(0.07407407407407408,0,0,0.07407407407407408,75.40740740740742,0)" xlink:href="#w"/></g><path d="M177-190C167-65 218 103 67 71c-23-6-38-20-44-43l32-5c15 47 100 32 89-28v-30C133-14 115 1 83 1 29 1 15-40 15-95c0-56 16-97 71-98 29-1 48 16 59 35 1-10 0-23 2-32h30zM94-22c36 0 50-32 50-73 0-42-14-75-50-75-39 0-46 34-46 75s6 73 46 73" id="x"/><path d="M100-194c62-1 85 37 85 99 1 63-27 99-86 99S16-35 15-95c0-66 28-99 85-99zM99-20c44 1 53-31 53-75 0-43-8-75-51-75s-53 32-53 75 10 74 51 75" id="y"/><path d="M115-194c55 1 70 41 70 98S169 2 115 4C84 4 66-9 55-30l1 105H24l-1-265h31l2 30c10-21 28-34 59-34zm-8 174c40 0 45-34 45-75s-6-73-45-74c-42 0-51 32-51 76 0 43 10 73 51 73" id="z"/><g id="b"><use transform="matrix(0.07407407407407408,0,0,0.07407407407407408,0,0)" xlink:href="#x"/><use transform="matrix(0.07407407407407408,0,0,0.07407407407407408,14.814814814814817,0)" xlink:href="#w"/><use transform="matrix(0.07407407407407408,0,0,0.07407407407407408,23.629629629629633,0)" xlink:href="#y"/><use transform="matrix(0.07407407407407408,0,0,0.07407407407407408,38.44444444444445,0)" xlink:href="#s"/><use transform="matrix(0.07407407407407408,0,0,0.07407407407407408,53.25925925925927,0)" xlink:href="#z"/></g><path d="M96-169c-40 0-48 33-48 73s9 75 48 75c24 0 41-14 43-38l32 2c-6 37-31 61-74 61-59 0-76-41-82-99-10-93 101-131 147-64 4 7 5 14 7 22l-32 3c-4-21-16-35-41-35" id="A"/><g id="c"><use transform="matrix(0.05,0,0,0.05,0,0)" xlink:href="#A"/><use transform="matrix(0.05,0,0,0.05,9,0)" xlink:href="#r"/><use transform="matrix(0.05,0,0,0.05,12.949999999999998,0)" xlink:href="#s"/><use transform="matrix(0.05,0,0,0.05,22.95,0)" xlink:href="#t"/><use transform="matrix(0.05,0,0,0.05,31.950000000000003,0)" xlink:href="#u"/><use transform="matrix(0.05,0,0,0.05,36.95,0)" xlink:href="#v"/><use transform="matrix(0.05,0,0,0.05,46.95,0)" xlink:href="#w"/></g><path d="M101-251c68 0 85 55 85 127S166 4 100 4C33 4 14-52 14-124c0-73 17-127 87-127zm-1 229c47 0 54-49 54-102s-4-102-53-102c-51 0-55 48-55 102 0 53 5 102 54 102" id="B"/><use transform="matrix(0.05,0,0,0.05,0,0)" xlink:href="#B" id="d"/><path d="M63-220v92h138v28H63V0H30v-248h175v28H63" id="C"/><path d="M85-194c31 0 48 13 60 33l-1-100h32l1 261h-30c-2-10 0-23-3-31C134-8 116 4 85 4 32 4 16-35 15-94c0-66 23-100 70-100zm9 24c-40 0-46 34-46 75 0 40 6 74 45 74 42 0 51-32 51-76 0-42-9-74-50-73" id="D"/><g id="e"><use transform="matrix(0.05,0,0,0.05,0,0)" xlink:href="#C"/><use transform="matrix(0.05,0,0,0.05,10.950000000000001,0)" xlink:href="#v"/><use transform="matrix(0.05,0,0,0.05,20.950000000000003,0)" xlink:href="#v"/><use transform="matrix(0.05,0,0,0.05,30.950000000000003,0)" xlink:href="#D"/></g><path d="M141-36C126-15 110 5 73 4 37 3 15-17 15-53c-1-64 63-63 125-63 3-35-9-54-41-54-24 1-41 7-42 31l-33-3c5-37 33-52 76-52 45 0 72 20 72 64v82c-1 20 7 32 28 27v20c-31 9-61-2-59-35zM48-53c0 20 12 33 32 33 41-3 63-29 60-74-43 2-92-5-92 41" id="E"/><g id="f"><use transform="matrix(0.05,0,0,0.05,0,0)" xlink:href="#E"/><use transform="matrix(0.05,0,0,0.05,10,0)" xlink:href="#r"/><use transform="matrix(0.05,0,0,0.05,13.949999999999998,0)" xlink:href="#r"/></g><path d="M108 0H70L1-190h34L89-25l56-165h34" id="F"/><path d="M24-231v-30h32v30H24zM24 0v-190h32V0H24" id="G"/><path d="M115-194c53 0 69 39 70 98 0 66-23 100-70 100C84 3 66-7 56-30L54 0H23l1-261h32v101c10-23 28-34 59-34zm-8 174c40 0 45-34 45-75 0-40-5-75-45-74-42 0-51 32-51 76 0 43 10 73 51 73" id="H"/><g id="g"><use transform="matrix(0.05,0,0,0.05,0,0)" xlink:href="#E"/><use transform="matrix(0.05,0,0,0.05,10,0)" xlink:href="#F"/><use transform="matrix(0.05,0,0,0.05,19,0)" xlink:href="#E"/><use transform="matrix(0.05,0,0,0.05,29,0)" xlink:href="#G"/><use transform="matrix(0.05,0,0,0.05,32.95,0)" xlink:href="#r"/><use transform="matrix(0.05,0,0,0.05,36.900000000000006,0)" xlink:href="#E"/><use transform="matrix(0.05,0,0,0.05,46.900000000000006,0)" xlink:href="#H"/><use transform="matrix(0.05,0,0,0.05,56.900000000000006,0)" xlink:href="#r"/><use transform="matrix(0.05,0,0,0.05,60.85,0)" xlink:href="#v"/></g><path d="M106-169C34-169 62-67 57 0H25v-261h32l-1 103c12-21 28-36 61-36 89 0 53 116 60 194h-32v-121c2-32-8-49-39-48" id="I"/><g id="h"><use transform="matrix(0.05,0,0,0.05,0,0)" xlink:href="#H"/><use transform="matrix(0.05,0,0,0.05,10,0)" xlink:href="#E"/><use transform="matrix(0.05,0,0,0.05,20,0)" xlink:href="#u"/><use transform="matrix(0.05,0,0,0.05,25,0)" xlink:href="#A"/><use transform="matrix(0.05,0,0,0.05,34,0)" xlink:href="#I"/><use transform="matrix(0.05,0,0,0.05,44,0)" xlink:href="#v"/><use transform="matrix(0.05,0,0,0.05,54,0)" xlink:href="#t"/></g><path d="M27 0v-27h64v-190l-56 39v-29l58-41h29v221h61V0H27" id="J"/><use transform="matrix(0.05,0,0,0.05,0,0)" xlink:href="#J" id="i"/><path d="M160-131c35 5 61 23 61 61C221 17 115-2 30 0v-248c76 3 177-17 177 60 0 33-19 50-47 57zm-97-11c50-1 110 9 110-42 0-47-63-36-110-37v79zm0 115c55-2 124 14 124-45 0-56-70-42-124-44v89" id="K"/><path d="M143 0L79-87 56-68V0H24v-261h32v163l83-92h37l-77 82L181 0h-38" id="L"/><path d="M117-194c89-4 53 116 60 194h-32v-121c0-31-8-49-39-48C34-167 62-67 57 0H25l-1-190h30c1 10-1 24 2 32 11-22 29-35 61-36" id="M"/><g id="j"><use transform="matrix(0.14814814814814817,0,0,0.14814814814814817,0,0)" xlink:href="#K"/><use transform="matrix(0.14814814814814817,0,0,0.14814814814814817,35.55555555555556,0)" xlink:href="#E"/><use transform="matrix(0.14814814814814817,0,0,0.14814814814814817,65.18518518518519,0)" xlink:href="#A"/><use transform="matrix(0.14814814814814817,0,0,0.14814814814814817,91.85185185185186,0)" xlink:href="#L"/><use transform="matrix(0.14814814814814817,0,0,0.14814814814814817,118.51851851851853,0)" xlink:href="#v"/><use transform="matrix(0.14814814814814817,0,0,0.14814814814814817,148.14814814814815,0)" xlink:href="#M"/><use transform="matrix(0.14814814814814817,0,0,0.14814814814814817,177.77777777777777,0)" xlink:href="#D"/></g><path d="M101-251c82-7 93 87 43 132L82-64C71-53 59-42 53-27h129V0H18c2-99 128-94 128-182 0-28-16-43-45-43s-46 15-49 41l-32-3c6-41 34-60 81-64" id="N"/><use transform="matrix(0.05,0,0,0.05,0,0)" xlink:href="#N" id="k"/><path d="M126-127c33 6 58 20 58 59 0 88-139 92-164 29-3-8-5-16-6-25l32-3c6 27 21 44 54 44 32 0 52-15 52-46 0-38-36-46-79-43v-28c39 1 72-4 72-42 0-27-17-43-46-43-28 0-47 15-49 41l-32-3c6-42 35-63 81-64 48-1 79 21 79 65 0 36-21 52-52 59" id="O"/><use transform="matrix(0.05,0,0,0.05,0,0)" xlink:href="#O" id="l"/><path d="M30-248c87 1 191-15 191 75 0 78-77 80-158 76V0H30v-248zm33 125c57 0 124 11 124-50 0-59-68-47-124-48v98" id="P"/><g id="m"><use transform="matrix(0.05,0,0,0.05,0,0)" xlink:href="#P"/><use transform="matrix(0.05,0,0,0.05,12,0)" xlink:href="#G"/><use transform="matrix(0.05,0,0,0.05,15.949999999999998,0)" xlink:href="#z"/><use transform="matrix(0.05,0,0,0.05,25.950000000000003,0)" xlink:href="#v"/></g><path d="M206 0h-36l-40-164L89 0H53L-1-190h32L70-26l43-164h34l41 164 42-164h31" id="Q"/><g id="n"><use transform="matrix(0.05,0,0,0.05,0,0)" xlink:href="#C"/><use transform="matrix(0.05,0,0,0.05,10.950000000000001,0)" xlink:href="#y"/><use transform="matrix(0.05,0,0,0.05,20.950000000000003,0)" xlink:href="#w"/><use transform="matrix(0.05,0,0,0.05,26.900000000000002,0)" xlink:href="#Q"/><use transform="matrix(0.05,0,0,0.05,39.85,0)" xlink:href="#E"/><use transform="matrix(0.05,0,0,0.05,49.85,0)" xlink:href="#w"/><use transform="matrix(0.05,0,0,0.05,55.800000000000004,0)" xlink:href="#D"/></g><g id="o"><use transform="matrix(0.05,0,0,0.05,0,0)" xlink:href="#z"/><use transform="matrix(0.05,0,0,0.05,10,0)" xlink:href="#w"/><use transform="matrix(0.05,0,0,0.05,15.949999999999998,0)" xlink:href="#y"/><use transform="matrix(0.05,0,0,0.05,25.950000000000003,0)" xlink:href="#A"/><use transform="matrix(0.05,0,0,0.05,34.95,0)" xlink:href="#v"/><use transform="matrix(0.05,0,0,0.05,44.95,0)" xlink:href="#t"/><use transform="matrix(0.05,0,0,0.05,53.95,0)" xlink:href="#t"/><use transform="matrix(0.05,0,0,0.05,62.95,0)" xlink:href="#v"/><use transform="matrix(0.05,0,0,0.05,72.95,0)" xlink:href="#D"/></g><path d="M30-248c118-7 216 8 213 122C240-48 200 0 122 0H30v-248zM63-27c89 8 146-16 146-99s-60-101-146-95v194" id="R"/><g id="p"><use transform="matrix(0.05,0,0,0.05,0,0)" xlink:href="#R"/><use transform="matrix(0.05,0,0,0.05,12.950000000000001,0)" xlink:href="#v"/><use transform="matrix(0.05,0,0,0.05,22.950000000000003,0)" xlink:href="#F"/><use transform="matrix(0.05,0,0,0.05,31.950000000000003,0)" xlink:href="#G"/><use transform="matrix(0.05,0,0,0.05,35.900000000000006,0)" xlink:href="#A"/><use transform="matrix(0.05,0,0,0.05,44.900000000000006,0)" xlink:href="#v"/></g></defs></g></svg>